Coordinates
version=1
nRows=10
nColumns=33
inDegrees=yes

Units are S.I. units (second, meters, Newtons, ...)
Angles are in degrees.

endheader
time	ground_thorax_rot_x	ground_thorax_rot_y	ground_thorax_rot_z	ground_thorax_tx	ground_thorax_ty	ground_thorax_tz	clav_prot_r	clav_elev_r	scapula_abduction_r	scapula_elevation_r	scapula_upward_rot_r	scapula_winging_r	shoulder_elv_r	plane_of_elev_r	axial_rot_r	elbow_flexion_r	pro_sup_r	wrist_flex_r	wrist_dev_r	clav_prot_l	clav_elev_l	scapula_abduction_l	scapula_elevation_l	scapula_upward_rot_l	scapula_winging_l	shoulder_elv_l	plane_of_elev_l	axial_rot_l	elbow_flexion_l	pro_sup_l	wrist_flex_l	wrist_dev_l
      4.74000000	    -40.24151080	    -14.93198449	     18.98258647	   -137.02486098	    824.66583140	      9.63059849	     11.12033299	    -45.00000000	     42.98296452	    -45.00000000	    -45.00000000	  -3697.93855513	  -2983.49882567	    145.59399230	    179.99999979	   1448.48232796	     52.71145087	     25.31538041	     11.10709015	     16.24750532	     40.12092559	    -41.06928651	    -45.00000000	    -39.59195140	   1524.92277647	  -4608.60470595	     26.57505888	     -6.52627042	  -1071.10648759	     17.79803031	      9.91856324	    -21.22655550
      4.75000000	    -40.31559388	    -14.29784251	     18.49909554	   -142.35663957	    826.43256893	      9.48063134	     11.08426449	    -45.00000000	     42.95908112	    -45.00000000	    -45.00000000	  -3698.23052152	  -2983.39342244	    145.69332535	    179.99999979	   1448.27608354	     52.63147484	     25.34544189	     11.20089241	     16.12113479	     40.08096486	    -41.02179856	    -45.00000000	    -39.61181033	   1525.17798990	  -4608.52848801	     26.45025586	     -6.99312843	  -1071.11906008	     16.41125208	     10.06683180	    -21.11120485
      4.76000000	    -40.35665019	    -13.78510141	     18.28393294	   -147.64475381	    828.15370468	      9.36285755	     11.22256769	    -45.00000000	     42.64914260	    -45.00000000	    -45.00000000	  -3698.48818222	  -2983.31070757	    145.84108180	    179.99999979	   1447.87251059	     52.42409712	     25.27769506	     11.35429386	     16.01560583	     40.03635652	    -40.98117958	    -45.00000000	    -40.05765323	   1525.42163085	  -4608.30546349	     26.39472802	     -7.65101140	  -1071.11718339	     15.14378917	     10.15174254	    -21.00270871
      4.77000000	    -40.32808169	    -13.25306728	     17.78054346	   -152.85285939	    829.83228983	      9.27868314	     11.06205260	    -45.00000000	     42.89738763	    -45.00000000	    -45.00000000	  -3699.06578565	  -2983.37900803	    145.71470782	    179.99999979	   1447.69026126	     52.00341541	     25.46544921	     11.67532031	     16.01498368	     39.71222400	    -40.78932753	    -45.00000000	    -40.25095104	   1525.59957257	  -4608.28089537	     26.28207990	     -7.69109014	  -1071.10440811	     13.74168187	     10.15294855	    -20.87240967
      4.78000000	    -40.26610773	    -12.67973169	     17.35973519	   -157.97071414	    831.47601171	      9.22695067	     11.02994568	    -45.00000000	     42.72080306	    -45.00000000	    -45.00000000	  -3699.22149295	  -2983.16456150	    145.87088802	    179.99999979	   1447.28259680	     51.04568762	     25.78254635	     12.21370121	     15.87324353	     39.44046684	    -40.39193290	    -45.00000000	    -41.60721964	   1525.22301069	  -4607.58231026	     26.76082873	     -4.99783935	  -1071.55116851	     11.17845732	     10.73858217	    -20.49233155
      4.79000000	    -40.21679833	    -12.19593308	     17.15659238	   -162.96532473	    833.07873989	      9.20389599	     11.00587818	    -45.00000000	     42.60124328	    -45.00000000	    -45.00000000	  -3699.57523432	  -2983.21292387	    145.96556478	    179.99999979	   1446.78885718	     50.21303319	     25.69768032	     12.59742738	     15.81474052	     39.32232725	    -40.32390886	    -45.00000000	    -42.01445883	   1525.42925313	  -4607.48594753	     26.62977311	     -5.60225115	  -1071.53955172	     10.06721511	     10.79270192	    -20.40365710
      4.80000000	    -40.13817827	    -11.64055588	     16.91909440	   -167.81879993	    834.63682320	      9.20486928	     10.96608941	    -45.00000000	     42.52839277	    -45.00000000	    -45.00000000	  -3699.94680316	  -2983.24521453	    146.11111098	    179.99999979	   1446.26924232	     49.37664143	     25.66523271	     13.01714591	     15.78816501	     39.14468297	    -40.19676444	    -45.00000000	    -42.55604934	   1525.54980737	  -4607.32183312	     26.62695596	     -6.00498942	  -1071.52604640	      9.14717845	     10.79997699	    -20.33777555
      4.81000000	    -40.09371671	    -11.24264410	     16.68900490	   -172.51228604	    836.14103227	      9.22210533	     10.93846961	    -45.00000000	     42.40618482	    -45.00000000	    -45.00000000	  -3700.21693005	  -2983.28852753	    146.15440557	    179.99999979	   1445.87507089	     48.62200188	     25.63493369	     13.38757994	     15.68909670	     38.98570977	    -40.10496737	    -45.00000000	    -43.01863945	   1525.74776813	  -4607.26265736	     26.43116519	     -6.58142751	  -1071.52860242	      8.55248312	     10.77867369	    -20.32090426
      4.82000000	    -40.00043016	    -10.82540926	     16.51786442	   -177.03038130	    837.58041570	      9.24835283	     10.87303976	    -45.00000000	     42.34701282	    -45.00000000	    -45.00000000	  -3700.55969413	  -2983.33697620	    146.23750775	    179.99999979	   1445.41435713	     48.02328174	     25.66437689	     13.76069129	     15.68403744	     38.85032371	    -39.90448702	    -45.00000000	    -43.44060646	   1525.84850217	  -4607.18299617	     26.25264661	     -7.41827384	  -1071.47461515	      8.17043240	     10.54686539	    -20.32789722
      4.83000000	    -39.94295671	    -10.34070886	     16.32928930	   -181.36039128	    838.94297793	      9.27685419	     10.85499897	    -45.00000000	     42.17529236	    -45.00000000	    -45.00000000	  -3700.80839794	  -2983.37151799	    146.36314285	    179.99999979	   1445.00595717	     47.48935236	     25.60510287	     14.02688575	     15.60577833	     38.66662116	    -39.89423938	    -45.00000000	    -44.10195982	   1526.00446853	  -4607.13885300	     26.22867125	     -7.63997605	  -1071.56275695	      7.70655727	     10.68639268	    -20.33557378
